<svg width="43" height="33" viewBox="0 0 43 33" fill="none" xmlns="http://www.w3.org/2000/svg">
<path d="M36.8171 0C36.6672 0 36.5192 0.00996979 36.3728 0.0225334C36.3363 0.0124825 36.3005 0 36.2614 0H14.814C11.9308 0 9.58551 2.34533 9.58551 5.22847V27.2358H0.435672C0.194695 27.2358 0 27.4302 0 27.6715C0 30.554 2.34533 32.9 5.22847 32.9C5.3357 32.9 5.43054 32.8565 5.50657 32.7927C5.58236 32.8565 5.67719 32.9 5.78443 32.9H27.2316C30.1148 32.9 32.4601 30.5541 32.4601 27.6715C32.4601 27.6324 32.4473 27.5966 32.4381 27.5608C32.4473 27.5243 32.4601 27.4893 32.4601 27.4498V26.0337V5.66455H41.6099C41.8507 5.66455 42.0456 5.46969 42.0456 5.22887C42.0455 2.34533 39.7002 0 36.8171 0ZM27.2316 32.0286C24.8292 32.0286 22.8745 30.0747 22.8745 27.6715C22.8745 27.4302 22.6797 27.2358 22.4388 27.2358H10.4569V5.22847C10.4569 2.82583 12.4115 0.871425 14.814 0.871425H33.933C32.5221 1.80859 31.5886 3.41072 31.5886 5.22847V26.0332V27.4493C31.5886 27.4884 31.6013 27.5243 31.6107 27.56C31.6013 27.5966 31.5886 27.6316 31.5886 27.6705C31.5886 30.0737 29.634 32.0286 27.2316 32.0286Z" fill="white"/>
<path d="M27.776 23.418H15.5763C15.3352 23.418 15.1406 23.6127 15.1406 23.8537C15.1406 24.0945 15.3353 24.2892 15.5763 24.2892H27.776C28.0168 24.2892 28.2117 24.0945 28.2117 23.8537C28.2117 23.6127 28.0168 23.418 27.776 23.418Z" fill="white"/>
<path d="M27.776 19.0625H15.5763C15.3352 19.0625 15.1406 19.2573 15.1406 19.4983C15.1406 19.7391 15.3353 19.9338 15.5763 19.9338H27.776C28.0168 19.9338 28.2117 19.7391 28.2117 19.4983C28.2117 19.2573 28.0168 19.0625 27.776 19.0625Z" fill="white"/>
<path d="M27.776 14.7031H15.5763C15.3352 14.7031 15.1406 14.8978 15.1406 15.1388C15.1406 15.3796 15.3353 15.5745 15.5763 15.5745H27.776C28.0168 15.5745 28.2117 15.3796 28.2117 15.1388C28.2117 14.8978 28.0168 14.7031 27.776 14.7031Z" fill="white"/>
<path d="M27.776 10.3477H15.5763C15.3352 10.3477 15.1406 10.5423 15.1406 10.7833C15.1406 11.0242 15.3353 11.2191 15.5763 11.2191H27.776C28.0168 11.2191 28.2117 11.0242 28.2117 10.7833C28.2117 10.5422 28.0168 10.3477 27.776 10.3477Z" fill="white"/>
<path d="M27.776 5.99219H15.5763C15.3352 5.99219 15.1406 6.18688 15.1406 6.42786C15.1406 6.66867 15.3353 6.86353 15.5763 6.86353H27.776C28.0168 6.86353 28.2117 6.66859 28.2117 6.42786C28.2117 6.18688 28.0168 5.99219 27.776 5.99219Z" fill="white"/>
</svg>
