<svg width="40" height="40" viewBox="0 0 40 40" fill="none" xmlns="http://www.w3.org/2000/svg">
<path d="M19.512 0C8.75604 0 0 8.75468 0 19.5167C0 30.2745 8.75604 39.03 19.512 39.03C30.2708 39.03 39.0241 30.2745 39.0241 19.5167C39.0239 8.75468 30.2706 0 19.512 0ZM19.512 37.1496C9.79052 37.1496 1.87995 29.24 1.87995 19.5161C1.87995 9.79216 9.79033 1.87963 19.512 1.87963C29.2337 1.87963 37.1441 9.79197 37.1441 19.5161C37.1441 29.2402 29.2335 37.1496 19.512 37.1496Z" fill="white"/>
<path d="M20.4472 18.1456C17.8592 17.0465 16.9526 16.275 16.9526 14.7598C16.9526 13.5434 17.6228 12.1741 19.9117 12.1741C21.8134 12.1741 23.0295 12.8605 23.654 13.2149L24.3957 11.2539C23.5038 10.7499 22.2885 10.2719 20.5362 10.2164V7.32812H18.6633V10.3005C15.9583 10.7497 14.2087 12.6197 14.2087 15.0845C14.2087 17.6702 16.0816 19.065 19.1082 20.2553C21.3095 21.1467 22.2785 22.1581 22.275 23.7908C22.2785 25.488 21.0393 26.7044 18.9327 26.7044C17.2675 26.7044 15.7203 26.1119 14.683 25.4298L13.9707 27.4169C15.0079 28.1588 16.7636 28.695 18.4835 28.7274V31.6965H20.3564V28.6073C23.4152 28.1321 25.051 25.9311 25.051 23.5566C25.0518 20.9133 23.5067 19.3971 20.4472 18.1456Z" fill="white"/>
</svg>
