<svg width="56" height="27" viewBox="0 0 56 27" fill="none" xmlns="http://www.w3.org/2000/svg">
<path d="M19.643 16.9218C17.0128 16.9218 14.873 19.0612 14.873 21.6909C14.873 24.3206 17.0128 26.46 19.643 26.46C22.2727 26.46 24.4125 24.3206 24.4125 21.6909C24.4121 19.0612 22.2727 16.9218 19.643 16.9218ZM19.643 23.6155C18.5815 23.6155 17.718 22.7523 17.718 21.6909C17.718 20.6299 18.5815 19.7663 19.643 19.7663C20.704 19.7663 21.5676 20.6295 21.5676 21.6909C21.5676 22.7519 20.704 23.6155 19.643 23.6155Z" fill="white"/>
<path d="M46.3379 16.9218C43.7082 16.9218 41.5684 19.0612 41.5684 21.6909C41.5684 24.3206 43.7078 26.46 46.3379 26.46C48.9676 26.46 51.1074 24.3206 51.1074 21.6909C51.1078 19.0612 48.968 16.9218 46.3379 16.9218ZM46.3379 23.6155C45.2769 23.6155 44.4133 22.7523 44.4133 21.6909C44.4133 20.6299 45.2765 19.7663 46.3379 19.7663C47.3993 19.7663 48.2625 20.6295 48.2625 21.6909C48.2629 22.7519 47.3993 23.6155 46.3379 23.6155Z" fill="white"/>
<path d="M35.1247 0H15.0175C12.2727 0 10.0391 2.23321 10.0391 4.97802V21.504C10.0391 22.2896 10.676 22.9261 11.4615 22.9261C12.2471 22.9261 12.884 22.2896 12.884 21.504V4.97802C12.884 3.8019 13.841 2.84453 15.0175 2.84453H35.1251C36.3016 2.84453 37.2586 3.8019 37.2586 4.97802V17.9481C37.2586 19.1242 36.3016 20.0816 35.1251 20.0816H26.8445C26.059 20.0816 25.4221 20.7181 25.4221 21.5036C25.4221 22.2892 26.059 22.9257 26.8445 22.9257H35.1247C37.8695 22.9257 40.1031 20.6925 40.1031 17.9477V4.97802C40.1031 2.23321 37.8699 0 35.1247 0Z" fill="white"/>
<path d="M55.322 14.5584L51.9754 7.67862C51.7373 7.18949 51.2407 6.87891 50.6964 6.87891H43.0728C42.2873 6.87891 41.6504 7.51545 41.6504 8.30097C41.6504 9.0865 42.2873 9.72304 43.0728 9.72304H49.8068L52.621 15.5083V21.5028C52.621 22.2883 53.2579 22.9249 54.0434 22.9249C54.829 22.9249 55.4659 22.2883 55.4659 21.5028V15.1807C55.4655 14.9655 55.4162 14.7523 55.322 14.5584Z" fill="white"/>
<path d="M6.63776 13.9531H0.711034C0.318467 13.9531 0 14.272 0 14.6646C0 15.0571 0.318467 15.376 0.711034 15.376H6.63776C7.03072 15.376 7.34879 15.0571 7.34879 14.6646C7.34879 14.272 7.03033 13.9531 6.63776 13.9531Z" fill="white"/>
<path d="M6.63804 17.582H3.4376C3.04464 17.582 2.72656 17.9009 2.72656 18.2935C2.72656 18.686 3.04503 19.0049 3.4376 19.0049H6.63804C7.031 19.0049 7.34907 18.686 7.34907 18.2935C7.34907 17.9009 7.0306 17.582 6.63804 17.582Z" fill="white"/>
<path d="M33.6015 15.6151C33.9945 15.6151 34.3126 15.2963 34.3126 14.9037V8.32505C34.3126 6.2014 33.1762 5.125 30.9347 5.125H23.1134C22.7204 5.125 22.4023 5.44347 22.4023 5.83643C22.4023 6.22899 22.7208 6.54786 23.1134 6.54786H30.9347C32.5704 6.54786 32.8905 7.19937 32.8905 8.32544V14.9041C32.8905 15.2963 33.209 15.6151 33.6015 15.6151Z" fill="white"/>
</svg>
